<?xml version="1.0" encoding="UTF-8"?>
<svg version="1.1" viewBox="0 0 100 100" xmlns="http://www.w3.org/2000/svg">
 <g stroke-miterlimit="4.6">
  <rect width="100" height="100" fill="#f97316" stroke-linecap="square" stroke-width="4.0452" style="paint-order:stroke fill markers"/>
  <g stroke="#71717a" stroke-linecap="square">
   <rect x="15" y="22.5" width="70" height="55" fill="#71717a" stroke-linejoin="round" stroke-width="5" style="paint-order:normal"/>
   <rect x="45.999" y="77.5" width="8.0029" height="3.0029" fill="#71717a" stroke-linejoin="round" stroke-width="5" style="paint-order:normal"/>
   <path d="m84 23.5c-27.499-4.875-34 3.0029-34 3.0029s-6.5012-8.0029-35-3.0029v54c28.499-5 35 3.0029 35 3.0029s6.5017-7.8779 34-3.0029v-54" fill="#fff" stroke-width="2" style="paint-order:stroke fill markers"/>
  </g>
  <path d="m48.5 25h3v50l-1.4997-2.5-1.5003 2.5z" fill="#f97316" stroke="#71717a" stroke-linecap="square" style="paint-order:stroke fill markers"/>
  <g fill="none" stroke="#71717a" stroke-linecap="round" stroke-linejoin="round" stroke-width=".70836">
   <path d="m19.354 31.519c20.187-3.5418 24.793 2.1271 24.793 2.1271" style="paint-order:stroke fill markers"/>
   <path d="m19.354 38.519c20.187-3.5418 24.793 2.1271 24.793 2.1271" style="paint-order:stroke fill markers"/>
   <path d="m19.354 45.519c20.187-3.5418 24.793 2.1271 24.793 2.1271" style="paint-order:stroke fill markers"/>
   <path d="m19.354 52.519c20.187-3.5418 24.793 2.1271 24.793 2.1271" style="paint-order:stroke fill markers"/>
   <path d="m19.354 59.519c20.187-3.5418 24.793 2.1271 24.793 2.1271" style="paint-order:stroke fill markers"/>
   <path d="m19.354 66.519c20.187-3.5418 24.793 2.1271 24.793 2.1271" style="paint-order:stroke fill markers"/>
  </g>
  <path d="m52.502 75.631 25.221-24.038-25.221-25.327v4.9362l20.099 20.262-20.099 19.23z" fill="#f97316" stroke="#71717a" stroke-linecap="square" stroke-width="1.0034" style="paint-order:stroke fill markers"/>
 </g>
</svg>
